<svg width="430.000000" height="300.000000" viewBox="0 0 430 300" fill="none" xmlns="http://www.w3.org/2000/svg" xmlns:xlink="http://www.w3.org/1999/xlink">
	<desc>
			Created with Pixso.
	</desc>
	<g clip-path="url(#clip7_12)">
		<path id="logo" d="M185.5 5L245.5 5C247.667 6.16663 252 10 252 16C268.667 16.5 302.6 28.1001 305 70.5L305 136.5C304.667 153 293.6 186.8 252 190C252 192.833 250.4 199 244 201L235 201C235.5 188.167 231.5 155.7 211.5 128.5C214.333 125.333 220.5 115 222.5 99L170 99C170.667 104.333 173.6 117.7 180 128.5C174 137.5 161.2 161.5 158 185.5C147.333 180.5 126 163.7 126 136.5L126 116.583C127.167 120.861 132.2 128.134 143 123C141.833 118.889 136.8 111.849 126 116.583L126 65.5C127.5 49.6667 140.4 17.6 180 16C179.667 13.5 180.3 7.80005 185.5 5ZM209 56C214 49.6666 227.4 40.5 241 54.5C236.333 60.8333 223.4 70 209 56ZM233.5 18C229.833 25.3334 227.1 41.7 245.5 48.5C249.167 41 251.9 24.4 233.5 18ZM252.5 49.5C252.667 41.5 257.7 26.3 276.5 29.5C277.167 37.3333 273.3 52.3 252.5 49.5ZM245.5 60C238.5 63.6667 227.1 75 237.5 91C245 87.6667 257.1 76.8 245.5 60ZM252.5 56.5C253.361 64.5941 260.066 79.6259 280 75C279.333 67.1667 272.9 52.5 252.5 56.5ZM178 58C178.333 66.3333 184 82.2 204 79C204.167 71 199.2 55.6001 178 58ZM267 91.5C262.5 95.1667 256.2 104.7 267 113.5C271.167 110 277 100.7 267 91.5ZM271 117C273 111.667 279.9 102.9 291.5 110.5C289.667 115.333 283 123.4 271 117ZM269 122C267.833 127.667 268.9 139.1 282.5 139.5C283.5 133.667 282.2 122 269 122ZM250.5 139.5C249.333 133.667 250.4 122 264 122C265.5 127 264.9 137.5 250.5 139.5ZM262.5 117C258 119.667 247.5 122.1 241.5 110.5C245.667 106.977 255.7 103.344 262.5 117ZM230.5 143.5C238.9 143.5 240 151.5 239.5 155.5C235.502 155.333 233.1 153.89 231.73 151.984C229.81 149.314 229.916 145.737 230.5 143.5ZM147 102.5C143.167 105.167 137.8 112.4 147 120C150.5 117.167 155.4 109.7 147 102.5ZM150.5 122.5C152 118.5 157.5 111.9 167.5 117.5C165.5 121.667 159.3 128.5 150.5 122.5ZM144.5 126.5C139.833 127 131.1 130.7 133.5 141.5C138.333 141.167 147.3 137.7 144.5 126.5ZM150.227 136.838C147.945 133.515 147.922 129.196 148.5 126.5C153.12 127.112 155.975 129.002 157.665 131.321C160.104 134.67 160.114 138.914 159.5 141.5C154.77 141.162 151.895 139.266 150.227 136.838ZM233.282 129.286C231.636 131.906 231.317 135.305 231.5 137.5C235.352 136.884 237.744 135.457 239.164 133.744C241.43 131.01 241.217 127.549 240.5 125.5C236.889 125.5 234.637 127.13 233.282 129.286Z" fill-rule="evenodd" fill="#333333"/>
		<path id="i" d="M118 255L118 292.5C118 295.261 120.239 297.5 123 297.5C125.761 297.5 128 295.261 128 292.5L128 255C128 252.239 125.761 250 123 250C120.239 250 118 252.239 118 255Z" fill-rule="evenodd" fill="#222222"/>
		<path id="i" d="M417.999 255L417.999 292.5C417.999 295.261 420.238 297.5 422.999 297.5C425.76 297.5 427.999 295.261 427.999 292.5L427.999 255C427.999 252.239 425.76 250 422.999 250C420.238 250 417.999 252.239 417.999 255Z" fill-rule="evenodd" fill="#222222"/>
		<path id="i" d="M2 255L2 292.5C2 295.261 4.23853 297.5 7 297.5C9.76147 297.5 12 295.261 12 292.5L12 255C12 252.239 9.76147 250 7 250C4.23853 250 2 252.239 2 255Z" fill-rule="evenodd" fill="#222222"/>
		<path id="n" d="M32 292.5L32 267.923C32 264.928 34.4277 262.5 37.4226 262.5C38.4529 262.5 39.4617 262.793 40.3313 263.346L90.2905 295.096C91.7336 296.013 93.408 296.5 95.1179 296.5L97 296.5C101.97 296.5 106 292.471 106 287.5L106 255C106 252.239 103.761 250 101 250C98.2385 250 96 252.239 96 255L96 280.484C96 282.426 94.4258 284 92.4839 284C91.8403 284 91.2092 283.823 90.6589 283.489L37.6526 251.307C36.2446 250.452 34.6289 250 32.9817 250L32 250C27.0295 250 23 254.029 23 259L23 292.5C23 294.985 25.0146 297 27.5 297C29.9854 297 32 294.985 32 292.5Z" fill-rule="evenodd" fill="#222222"/>
		<path id="A" d="M262.874 252.779L235.487 288.593C233.791 290.811 234.05 293.954 236.088 295.864C238.445 298.074 242.197 297.754 244.146 295.177L270.59 260.202C271.163 259.445 272.057 259 273.006 259C273.948 259 274.835 259.437 275.408 260.184L302.328 295.222C304.294 297.781 308.04 298.086 310.395 295.879C312.441 293.96 312.702 290.804 310.998 288.576L283.671 252.841C282.267 251.004 280.269 249.711 278.018 249.181L275.361 248.556C273.809 248.191 272.192 248.202 270.645 248.589L268.393 249.152C266.195 249.701 264.25 250.98 262.874 252.779Z" fill-rule="evenodd" fill="#222222"/>
		<path id="." d="M279.499 286C279.499 282.41 276.589 279.5 272.999 279.5C269.409 279.5 266.499 282.41 266.499 286C266.499 289.59 269.409 292.5 272.999 292.5C276.589 292.5 279.499 289.59 279.499 286Z" fill-rule="evenodd" fill="#222222"/>
		<path id="T" d="M224 255C224 252.239 221.761 250 219 250L144 250C141.239 250 139 252.239 139 255C139 257.761 141.239 260 144 260L176.1 260C176.034 260.323 176 260.658 176 261L176 293C176 295.761 178.239 298 181 298C183.761 298 186 295.761 186 293L186 261C186 260.658 185.966 260.323 185.9 260L219 260C221.761 260 224 257.761 224 255Z" fill-rule="evenodd" fill="#222222"/>
		<path id="矢量 16" d="M329.016 259.967L394.766 259.528C397.108 259.513 399.016 261.407 399.016 263.75C399.016 266.093 397.108 267.987 394.766 267.972L338.109 267.594C330.341 267.542 324.016 273.825 324.016 281.594L324.016 292.5C324.016 294.985 326.03 297 328.516 297C331.001 297 333.016 294.985 333.016 292.5L333.016 287C333.016 281.477 337.493 277 343.016 277L395.016 277C402.471 277 408.516 270.956 408.516 263.5C408.516 256.044 402.471 250 395.016 250L329.016 250C325.917 250 324.002 251.902 324.002 255C324.002 257.759 326.257 259.985 329.016 259.967Z" fill-rule="evenodd" fill="#222222"/>
	</g>
	<defs>
		<clipPath id="clip7_12">
			<rect id="light" width="430.000000" height="300.000000" fill="white"/>
		</clipPath>
	</defs>
</svg>
