<svg width="800.000000" height="200.000000" viewBox="0 0 800 200" fill="none" xmlns="http://www.w3.org/2000/svg" xmlns:xlink="http://www.w3.org/1999/xlink">
	<rect id="logo" width="800.000000" height="200.000000" fill="#FFFFFF"/>
	<g clip-path="url(#clip6_197)">
		<path id="logo" d="M103.5 2L163.5 2C165.667 3.16663 170 7 170 13C186.667 13.5 220.6 25.1001 223 67.5L223 133.5C222.667 150 211.6 183.8 170 187C170 189.833 168.4 196 162 198L153 198C153.5 185.167 149.5 152.7 129.5 125.5C132.333 122.333 138.5 112 140.5 96L88 96C88.6667 101.333 91.6001 114.7 98 125.5C92 134.5 79.2002 158.5 76 182.5C65.3335 177.5 44 160.7 44 133.5L44 113.583C45.1667 117.861 50.2 125.134 61 120C59.8333 115.889 54.8 108.849 44 113.583L44 62.5C45.5 46.6667 58.3999 14.6 98 13C97.6665 10.5 98.3 4.80005 103.5 2ZM127 53C132 46.6666 145.4 37.5 159 51.5C154.333 57.8333 141.4 67 127 53ZM151.5 15C147.833 22.3334 145.1 38.7 163.5 45.5C167.167 38 169.9 21.4 151.5 15ZM170.5 46.5C170.667 38.5 175.7 23.3 194.5 26.5C195.167 34.3333 191.3 49.3 170.5 46.5ZM163.5 57C156.5 60.6667 145.1 72 155.5 88C163 84.6667 175.1 73.8 163.5 57ZM170.5 53.5C171.361 61.5941 178.066 76.6259 198 72C197.333 64.1667 190.9 49.5 170.5 53.5ZM96 55C96.3333 63.3333 102 79.2 122 76C122.167 68 117.2 52.6001 96 55ZM185 88.5C180.5 92.1667 174.2 101.7 185 110.5C189.167 107 195 97.7 185 88.5ZM189 114C191 108.667 197.9 99.9 209.5 107.5C207.667 112.333 201 120.4 189 114ZM187 119C185.833 124.667 186.9 136.1 200.5 136.5C201.5 130.667 200.2 119 187 119ZM168.5 136.5C167.333 130.667 168.4 119 182 119C183.5 124 182.9 134.5 168.5 136.5ZM180.5 114C176 116.667 165.5 119.1 159.5 107.5C163.667 103.977 173.7 100.344 180.5 114ZM148.5 140.5C156.9 140.5 158 148.5 157.5 152.5C153.502 152.333 151.1 150.89 149.73 148.984C147.81 146.314 147.916 142.737 148.5 140.5ZM65 99.5C61.1665 102.167 55.8 109.4 65 117C68.5 114.167 73.3999 106.7 65 99.5ZM68.5 119.5C70 115.5 75.4998 108.9 85.5 114.5C83.5 118.667 77.2998 125.5 68.5 119.5ZM62.5 123.5C57.8333 124 49.0999 127.7 51.5 138.5C56.3333 138.167 65.2998 134.7 62.5 123.5ZM68.2266 133.838C65.9453 130.515 65.9224 126.196 66.5 123.5C71.1201 124.112 73.9751 126.002 75.6646 128.321C78.1042 131.67 78.1135 135.914 77.5 138.5C72.7698 138.162 69.8945 136.266 68.2266 133.838ZM151.282 126.286C149.636 128.906 149.317 132.305 149.5 134.5C153.352 133.884 155.744 132.457 157.164 130.744C159.43 128.01 159.217 124.549 158.5 122.5C154.889 122.5 152.637 124.13 151.282 126.286Z" fill-rule="evenodd" fill="#000000"/>
		<path id="i" d="M399 81L399 118.5C399 121.261 401.239 123.5 404 123.5C406.761 123.5 409 121.261 409 118.5L409 81C409 78.2385 406.761 76 404 76C401.239 76 399 78.2385 399 81Z" fill-rule="evenodd" fill="#000000"/>
		<path id="i" d="M698.999 81L698.999 118.5C698.999 121.261 701.237 123.5 703.999 123.5C706.76 123.5 708.999 121.261 708.999 118.5L708.999 81C708.999 78.2385 706.76 76 703.999 76C701.237 76 698.999 78.2385 698.999 81Z" fill-rule="evenodd" fill="#000000"/>
		<path id="i" d="M283 81L283 118.5C283 121.261 285.239 123.5 288 123.5C290.761 123.5 293 121.261 293 118.5L293 81C293 78.2385 290.761 76 288 76C285.239 76 283 78.2385 283 81Z" fill-rule="evenodd" fill="#000000"/>
		<path id="n" d="M313 118.5L313 93.9227C313 90.9279 315.428 88.5 318.423 88.5C319.453 88.5 320.462 88.7935 321.331 89.3461L371.291 121.096C372.734 122.013 374.408 122.5 376.118 122.5L378 122.5C382.97 122.5 387 118.471 387 113.5L387 81C387 78.2385 384.761 76 382 76C379.239 76 377 78.2385 377 81L377 106.484C377 108.426 375.426 110 373.484 110C372.84 110 372.209 109.823 371.659 109.489L318.653 77.3069C317.245 76.452 315.629 76 313.982 76L313 76C308.03 76 304 80.0294 304 85L304 118.5C304 120.985 306.015 123 308.5 123C310.985 123 313 120.985 313 118.5Z" fill-rule="evenodd" fill="#000000"/>
		<path id="A" d="M543.874 78.7786L516.487 114.593C514.791 116.811 515.05 119.954 517.088 121.864C519.445 124.074 523.197 123.754 525.146 121.177L551.59 86.2023C552.163 85.4451 553.057 85 554.006 85C554.948 85 555.835 85.4374 556.408 86.1837L583.328 121.222C585.294 123.781 589.04 124.086 591.395 121.879C593.441 119.96 593.702 116.804 591.998 114.576L564.671 78.8406C563.267 77.0038 561.269 75.7106 559.018 75.1809L556.361 74.5558C554.809 74.1906 553.192 74.2018 551.645 74.5885L549.393 75.1516C547.195 75.7009 545.25 76.9796 543.874 78.7786Z" fill-rule="evenodd" fill="#000000"/>
		<path id="." d="M560.499 112C560.499 108.41 557.589 105.5 553.999 105.5C550.409 105.5 547.499 108.41 547.499 112C547.499 115.59 550.409 118.5 553.999 118.5C557.589 118.5 560.499 115.59 560.499 112Z" fill-rule="evenodd" fill="#000000"/>
		<path id="T" d="M505 81C505 78.2385 502.761 76 500 76L425 76C422.239 76 420 78.2385 420 81C420 83.7615 422.239 86 425 86L457.1 86C457.034 86.3231 457 86.6576 457 87L457 119C457 121.761 459.239 124 462 124C464.761 124 467 121.761 467 119L467 87C467 86.6576 466.966 86.3231 466.9 86L500 86C502.761 86 505 83.7615 505 81Z" fill-rule="evenodd" fill="#000000"/>
		<path id="P" d="M610.016 85.9667L675.766 85.5283C678.108 85.5127 680.016 87.4073 680.016 89.75C680.016 92.0927 678.108 93.9873 675.766 93.9717L619.109 93.594C611.341 93.5421 605.016 99.8252 605.016 107.594L605.016 118.5C605.016 120.985 607.03 123 609.516 123C612.001 123 614.016 120.985 614.016 118.5L614.016 113C614.016 107.477 618.493 103 624.016 103L676.016 103C683.471 103 689.516 96.9558 689.516 89.5C689.516 82.0442 683.471 76 676.016 76L610.016 76C606.918 76 605.002 77.9017 605.002 80.9998C605.002 83.7588 607.257 85.9851 610.016 85.9667Z" fill-rule="evenodd" fill="#000000"/>
	</g>
	<defs>
		<clipPath id="clip6_197">
			<rect id="logo" width="800.000000" height="200.000000" fill="white"/>
		</clipPath>
	</defs>
</svg>
