<svg width="450.000000" height="80.000000" viewBox="0 0 450 80" fill="none" xmlns="http://www.w3.org/2000/svg" xmlns:xlink="http://www.w3.org/1999/xlink">
	<rect id="origin1" width="450.000000" height="80.000000" fill="#FFFFFF"/>
	<g clip-path="url(#clip6_156)">
		<path id="i" d="M128 21L128 58.5C128 61.2615 130.239 63.5 133 63.5C135.761 63.5 138 61.2615 138 58.5L138 21C138 18.2385 135.761 16 133 16C130.239 16 128 18.2385 128 21Z" fill-rule="evenodd" fill="#000000"/>
		<path id="i" d="M427.999 21L427.999 58.5C427.999 61.2615 430.237 63.5 432.999 63.5C435.76 63.5 437.999 61.2615 437.999 58.5L437.999 21C437.999 18.2385 435.76 16 432.999 16C430.237 16 427.999 18.2385 427.999 21Z" fill-rule="evenodd" fill="#000000"/>
		<path id="i" d="M12 21L12 58.5C12 61.2615 14.2385 63.5 17 63.5C19.7615 63.5 22 61.2615 22 58.5L22 21C22 18.2385 19.7615 16 17 16C14.2385 16 12 18.2385 12 21Z" fill-rule="evenodd" fill="#000000"/>
		<path id="n" d="M42 58.5L42 33.9227C42 30.9279 44.4279 28.5 47.4227 28.5C48.4529 28.5 49.4618 28.7935 50.3312 29.3461L100.291 61.0958C101.734 62.0129 103.408 62.5 105.118 62.5L107 62.5C111.971 62.5 116 58.4706 116 53.5L116 21C116 18.2385 113.761 16 111 16C108.239 16 106 18.2385 106 21L106 46.4839C106 48.4258 104.426 50 102.484 50C101.84 50 101.209 49.8234 100.659 49.4894L47.6526 17.3069C46.2445 16.452 44.6289 16 42.9818 16L42 16C37.0294 16 33 20.0294 33 25L33 58.5C33 60.9852 35.0148 63 37.5 63C39.9852 63 42 60.9852 42 58.5Z" fill-rule="evenodd" fill="#000000"/>
		<path id="A" d="M272.874 18.7786L245.487 54.5925C243.79 56.8112 244.05 59.9541 246.087 61.8643C248.445 64.0741 252.197 63.7539 254.146 61.1766L280.59 26.2023C281.162 25.4451 282.057 25 283.006 25C283.947 25 284.835 25.4374 285.408 26.1837L312.328 61.2217C314.294 63.7814 318.04 64.0864 320.395 61.8787C322.441 59.9603 322.702 56.804 320.998 54.5758L293.671 18.8406C292.266 17.0038 290.269 15.7106 288.018 15.1809L285.361 14.5558C283.809 14.1906 282.192 14.2018 280.645 14.5885L278.392 15.1516C276.195 15.7009 274.25 16.9796 272.874 18.7786Z" fill-rule="evenodd" fill="#000000"/>
		<path id="." d="M289.499 52C289.499 48.4102 286.589 45.5 282.999 45.5C279.409 45.5 276.499 48.4102 276.499 52C276.499 55.5898 279.409 58.5 282.999 58.5C286.589 58.5 289.499 55.5898 289.499 52Z" fill-rule="evenodd" fill="#000000"/>
		<path id="T" d="M234 21C234 18.2385 231.761 16 229 16L154 16C151.239 16 149 18.2385 149 21C149 23.7615 151.239 26 154 26L186.1 26C186.034 26.3231 186 26.6576 186 27L186 59C186 61.7615 188.239 64 191 64C193.761 64 196 61.7615 196 59L196 27C196 26.6576 195.966 26.3231 195.9 26L229 26C231.761 26 234 23.7615 234 21Z" fill-rule="evenodd" fill="#000000"/>
		<path id="P" d="M339.016 25.9667L404.766 25.5283C407.108 25.5127 409.016 27.4073 409.016 29.75C409.016 32.0927 407.108 33.9873 404.766 33.9717L348.109 33.594C340.34 33.5421 334.015 39.8252 334.015 47.5936L334.015 58.5C334.015 60.9852 336.03 63 338.516 63C341.001 63 343.016 60.9852 343.016 58.5L343.016 53C343.016 47.4772 347.493 43 353.016 43L405.016 43C412.471 43 418.516 36.9558 418.516 29.5C418.516 22.0442 412.471 16 405.016 16L339.016 16C335.917 16 334.002 17.9017 334.002 20.9998C334.002 23.7588 336.257 25.9851 339.016 25.9667Z" fill-rule="evenodd" fill="#000000"/>
	</g>
	<defs>
		<clipPath id="clip6_156">
			<rect id="origin1" width="450.000000" height="80.000000" fill="white"/>
		</clipPath>
	</defs>
</svg>
