<svg width="1000.000000" height="600.000000" viewBox="0 0 1000 600" fill="none" xmlns="http://www.w3.org/2000/svg" xmlns:xlink="http://www.w3.org/1999/xlink">
	<g clip-path="url(#clip6_177)">
		<path id="logo" d="M470.5 93L530.5 93C532.667 94.1666 537 98 537 104C553.667 104.5 587.6 116.1 590 158.5L590 224.5C589.667 241 578.6 274.8 537 278C537 280.833 535.4 287 529 289L520 289C520.5 276.167 516.5 243.7 496.5 216.5C499.333 213.333 505.5 203 507.5 187L455 187C455.667 192.333 458.6 205.7 465 216.5C459 225.5 446.2 249.5 443 273.5C432.333 268.5 411 251.7 411 224.5L411 204.583C412.167 208.861 417.2 216.134 428 211C426.833 206.889 421.8 199.849 411 204.583L411 153.5C412.5 137.667 425.4 105.6 465 104C464.667 101.5 465.3 95.8 470.5 93ZM494 144C499 137.667 512.4 128.5 526 142.5C521.333 148.833 508.4 158 494 144ZM518.5 106C514.833 113.333 512.1 129.7 530.5 136.5C534.167 129 536.9 112.4 518.5 106ZM537.5 137.5C537.667 129.5 542.7 114.3 561.5 117.5C562.167 125.333 558.3 140.3 537.5 137.5ZM530.5 148C523.5 151.667 512.1 163 522.5 179C530 175.667 542.1 164.8 530.5 148ZM537.5 144.5C538.361 152.594 545.066 167.626 565 163C564.333 155.167 557.9 140.5 537.5 144.5ZM463 146C463.333 154.333 469 170.2 489 167C489.167 159 484.2 143.6 463 146ZM552 179.5C547.5 183.167 541.2 192.7 552 201.5C556.167 198 562 188.7 552 179.5ZM556 205C558 199.667 564.9 190.9 576.5 198.5C574.667 203.333 568 211.4 556 205ZM554 210C552.833 215.667 553.9 227.1 567.5 227.5C568.5 221.667 567.2 210 554 210ZM535.5 227.5C534.333 221.667 535.4 210 549 210C550.5 215 549.9 225.5 535.5 227.5ZM547.5 205C543 207.667 532.5 210.1 526.5 198.5C530.667 194.977 540.7 191.344 547.5 205ZM515.5 231.5C523.9 231.5 525 239.5 524.5 243.5C520.502 243.333 518.1 241.89 516.73 239.984C514.81 237.314 514.916 233.737 515.5 231.5ZM432 190.5C428.167 193.167 422.8 200.4 432 208C435.5 205.167 440.4 197.7 432 190.5ZM435.5 210.5C437 206.5 442.5 199.9 452.5 205.5C450.5 209.667 444.3 216.5 435.5 210.5ZM429.5 214.5C424.833 215 416.1 218.7 418.5 229.5C423.333 229.167 432.3 225.7 429.5 214.5ZM435.227 224.837C432.945 221.515 432.922 217.196 433.5 214.5C438.12 215.112 440.975 217.002 442.665 219.321C445.104 222.67 445.114 226.914 444.5 229.5C439.77 229.162 436.895 227.266 435.227 224.837ZM518.282 217.286C516.636 219.906 516.317 223.305 516.5 225.5C520.352 224.884 522.744 223.457 524.164 221.744C526.43 219.01 526.217 215.549 525.5 213.5C521.889 213.5 519.637 215.13 518.282 217.286Z" fill-rule="evenodd" fill="#333333"/>
		<path id="i" d="M403 336L403 373.5C403 376.261 405.239 378.5 408 378.5C410.761 378.5 413 376.261 413 373.5L413 336C413 333.239 410.761 331 408 331C405.239 331 403 333.239 403 336Z" fill-rule="evenodd" fill="#222222"/>
		<path id="i" d="M702.999 336L702.999 373.5C702.999 376.261 705.237 378.5 707.999 378.5C710.76 378.5 712.999 376.261 712.999 373.5L712.999 336C712.999 333.239 710.76 331 707.999 331C705.237 331 702.999 333.239 702.999 336Z" fill-rule="evenodd" fill="#222222"/>
		<path id="i" d="M287 336L287 373.5C287 376.261 289.239 378.5 292 378.5C294.761 378.5 297 376.261 297 373.5L297 336C297 333.239 294.761 331 292 331C289.239 331 287 333.239 287 336Z" fill-rule="evenodd" fill="#222222"/>
		<path id="n" d="M317 373.5L317 348.923C317 345.928 319.428 343.5 322.423 343.5C323.453 343.5 324.462 343.793 325.331 344.346L375.291 376.096C376.734 377.013 378.408 377.5 380.118 377.5L382 377.5C386.97 377.5 391 373.471 391 368.5L391 336C391 333.239 388.761 331 386 331C383.239 331 381 333.239 381 336L381 361.484C381 363.426 379.426 365 377.484 365C376.84 365 376.209 364.823 375.659 364.489L322.653 332.307C321.245 331.452 319.629 331 317.982 331L317 331C312.03 331 308 335.029 308 340L308 373.5C308 375.985 310.015 378 312.5 378C314.985 378 317 375.985 317 373.5Z" fill-rule="evenodd" fill="#222222"/>
		<path id="A" d="M547.874 333.779L520.487 369.593C518.791 371.811 519.05 374.954 521.088 376.864C523.445 379.074 527.197 378.754 529.146 376.177L555.59 341.202C556.163 340.445 557.057 340 558.006 340C558.948 340 559.835 340.437 560.408 341.184L587.328 376.222C589.294 378.781 593.04 379.086 595.395 376.879C597.441 374.96 597.702 371.804 595.998 369.576L568.671 333.841C567.267 332.004 565.269 330.711 563.018 330.181L560.361 329.556C558.809 329.191 557.192 329.202 555.645 329.588L553.393 330.152C551.195 330.701 549.25 331.98 547.874 333.779Z" fill-rule="evenodd" fill="#222222"/>
		<path id="." d="M564.499 367C564.499 363.41 561.589 360.5 557.999 360.5C554.409 360.5 551.499 363.41 551.499 367C551.499 370.59 554.409 373.5 557.999 373.5C561.589 373.5 564.499 370.59 564.499 367Z" fill-rule="evenodd" fill="#222222"/>
		<path id="T" d="M509 336C509 333.239 506.761 331 504 331L429 331C426.239 331 424 333.239 424 336C424 338.761 426.239 341 429 341L461.1 341C461.034 341.323 461 341.658 461 342L461 374C461 376.761 463.239 379 466 379C468.761 379 471 376.761 471 374L471 342C471 341.658 470.966 341.323 470.9 341L504 341C506.761 341 509 338.761 509 336Z" fill-rule="evenodd" fill="#222222"/>
		<path id="矢量 16" d="M614.016 340.967L679.766 340.528C682.108 340.513 684.016 342.407 684.016 344.75C684.016 347.093 682.108 348.987 679.766 348.972L623.109 348.594C615.341 348.542 609.016 354.825 609.016 362.594L609.016 373.5C609.016 375.985 611.03 378 613.516 378C616.001 378 618.016 375.985 618.016 373.5L618.016 368C618.016 362.477 622.493 358 628.016 358L680.016 358C687.471 358 693.516 351.956 693.516 344.5C693.516 337.044 687.471 331 680.016 331L614.016 331C610.918 331 609.002 332.902 609.002 336C609.002 338.759 611.257 340.985 614.016 340.967Z" fill-rule="evenodd" fill="#222222"/>
	</g>
	<defs>
		<clipPath id="clip6_177">
			<rect id="light" width="1000.000000" height="600.000000" fill="white"/>
		</clipPath>
	</defs>
</svg>
