<svg width="200.000000" height="200.000000" viewBox="0 0 200 200" fill="none" xmlns="http://www.w3.org/2000/svg" xmlns:xlink="http://www.w3.org/1999/xlink">
	<g clip-path="url(#clip6_61)">
		<path id="logo" d="M70.5 2L130.5 2C132.667 3.16663 137 7 137 13C153.667 13.5 187.6 25.1001 190 67.5L190 133.5C189.667 150 178.6 183.8 137 187C137 189.833 135.4 196 129 198L120 198C120.5 185.167 116.5 152.7 96.5 125.5C99.3334 122.333 105.5 112 107.5 96L55 96C55.6667 101.333 58.6 114.7 65 125.5C59.0001 134.5 46.2002 158.5 43.0001 182.5C32.3334 177.5 10.9999 160.7 11 133.5L11 113.583C12.1666 117.861 17.2 125.134 27.9999 120C26.8333 115.889 21.8 108.849 11 113.583L11 62.5C12.5 46.6667 25.3999 14.6 64.9999 13C64.6666 10.5 65.3 4.80005 70.5 2ZM93.9999 53C98.9999 46.6666 112.4 37.5 126 51.5C121.333 57.8333 108.4 67 93.9999 53ZM118.5 15C114.833 22.3334 112.1 38.7 130.5 45.5C134.167 38 136.9 21.4 118.5 15ZM137.5 46.5C137.667 38.5 142.7 23.3 161.5 26.5C162.167 34.3333 158.3 49.3 137.5 46.5ZM130.5 57C123.5 60.6667 112.1 72 122.5 88C130 84.6667 142.1 73.8 130.5 57ZM137.5 53.5C138.361 61.5941 145.066 76.6259 165 72C164.333 64.1667 157.9 49.5 137.5 53.5ZM62.9999 55C63.3333 63.3333 68.9999 79.2 88.9999 76C89.1666 68 84.2 52.6001 62.9999 55ZM152 88.5C147.5 92.1667 141.2 101.7 152 110.5C156.167 107 162 97.7 152 88.5ZM156 114C158 108.667 164.9 99.9 176.5 107.5C174.667 112.333 168 120.4 156 114ZM154 119C152.833 124.667 153.9 136.1 167.5 136.5C168.5 130.667 167.2 119 154 119ZM135.5 136.5C134.333 130.667 135.4 119 149 119C150.5 124 149.9 134.5 135.5 136.5ZM147.5 114C143 116.667 132.5 119.1 126.5 107.5C130.667 103.977 140.7 100.344 147.5 114ZM115.5 140.5C123.9 140.5 125 148.5 124.5 152.5C120.502 152.333 118.1 150.89 116.73 148.984C114.81 146.314 114.916 142.737 115.5 140.5ZM31.9999 99.5C28.1666 102.167 22.7999 109.4 31.9999 117C35.4999 114.167 40.3999 106.7 31.9999 99.5ZM35.4999 119.5C36.9999 115.5 42.4998 108.9 52.4999 114.5C50.4999 118.667 44.2999 125.5 35.4999 119.5ZM29.4999 123.5C24.8333 124 16.0999 127.7 18.4999 138.5C23.3333 138.167 32.2999 134.7 29.4999 123.5ZM35.2266 133.838C32.9452 130.515 32.9222 126.196 33.4999 123.5C38.1202 124.112 40.975 126.002 42.6644 128.321C45.1042 131.67 45.1136 135.914 44.4999 138.5C39.7697 138.162 36.8945 136.266 35.2266 133.838ZM118.282 126.286C116.636 128.906 116.317 132.305 116.5 134.5C120.351 133.884 122.744 132.457 124.164 130.744C126.431 128.01 126.217 124.549 125.5 122.5C121.889 122.5 119.637 124.13 118.282 126.286Z" fill-rule="evenodd" fill="#000000"/>
	</g>
	<defs>
		<clipPath id="clip6_61">
			<rect id="logo" width="200.000000" height="200.000000" fill="white"/>
		</clipPath>
	</defs>
</svg>
