<svg version="1.1" xmlns="http://www.w3.org/2000/svg" viewBox="0 0 736.9989253099449 610" width="736.9989253099449" height="610" filter="invert(93%) hue-rotate(180deg)">
  <!-- svg-source:excalidraw -->
  
  <defs>
    <style class="style-fonts">
      @font-face {
        font-family: "Virgil";
        src: url("https://file%2B.vscode-resource.vscode-cdn.net/c%3A/Users/Admin/.vscode/extensions/pomdtr.excalidraw-editor-3.5.1/public//dist/excalidraw-assets/Virgil.woff2");
      }
      @font-face {
        font-family: "Cascadia";
        src: url("https://file%2B.vscode-resource.vscode-cdn.net/c%3A/Users/Admin/.vscode/extensions/pomdtr.excalidraw-editor-3.5.1/public//dist/excalidraw-assets/Cascadia.woff2");
      }
    </style>
  </defs>
  <rect x="0" y="0" width="736.9989253099449" height="610" fill="#ffffff"></rect><g stroke-linecap="round" transform="translate(230.99892530994487 177.33333333333337) rotate(0 102 100)"><path d="M145.96 9.26 C157.06 12.94, 167.75 22.85, 176.2 31.97 C184.66 41.08, 192.07 52.8, 196.68 63.94 C201.29 75.08, 203.69 86.82, 203.84 98.81 C203.99 110.8, 201.81 124.48, 197.57 135.89 C193.34 147.3, 186.76 158.28, 178.44 167.27 C170.11 176.26, 158.75 184.33, 147.63 189.83 C136.51 195.34, 123.96 199.1, 111.74 200.29 C99.51 201.48, 86.21 200.27, 74.27 196.95 C62.33 193.62, 50 187.74, 40.1 180.34 C30.21 172.94, 21.32 162.71, 14.91 152.54 C8.49 142.36, 3.75 130.89, 1.6 119.29 C-0.55 107.69, -0.34 94.79, 2 82.94 C4.34 71.09, 9.33 58.54, 15.64 48.18 C21.96 37.82, 30.3 28.25, 39.91 20.81 C49.52 13.36, 61.62 6.85, 73.32 3.5 C85.02 0.16, 96.66 -1.22, 110.11 0.74 C123.57 2.69, 145.54 11.92, 154.05 15.22 C162.55 18.52, 162.02 19.12, 161.14 20.56 M119.69 1.71 C131.33 1.89, 143.87 7.69, 154.16 13.98 C164.44 20.27, 173.97 29.91, 181.41 39.43 C188.86 48.95, 195.13 59.65, 198.81 71.07 C202.49 82.49, 204.15 96.06, 203.5 107.96 C202.84 119.86, 200.09 131.61, 194.88 142.45 C189.67 153.29, 181.44 164.83, 172.25 172.98 C163.07 181.14, 151.21 187.13, 139.77 191.39 C128.33 195.65, 115.65 198.05, 103.62 198.56 C91.59 199.07, 79.37 198.32, 67.59 194.45 C55.81 190.58, 42.23 183.69, 32.96 175.35 C23.69 167.02, 17.33 155.07, 11.98 144.42 C6.64 133.77, 2.45 123.36, 0.88 111.46 C-0.69 99.56, -0.79 84.61, 2.56 73.03 C5.91 61.45, 13.34 51.59, 20.98 41.98 C28.62 32.37, 38.35 22.2, 48.38 15.37 C58.4 8.55, 69.3 3.48, 81.13 1.05 C92.97 -1.37, 113.27 0.59, 119.39 0.81 C125.51 1.04, 117.91 0.67, 117.84 2.4" stroke="#000000" stroke-width="1" fill="none"></path></g><g transform="translate(316.8840433945421 264.6226552146786) rotate(0 15.989990234375 12.5)"><text x="15.989990234375" y="0" font-family="Virgil, Segoe UI Emoji" font-size="20px" fill="#000000" text-anchor="middle" style="white-space: pre;" direction="ltr" dominant-baseline="text-before-edge">car</text></g><g stroke-linecap="round" transform="translate(504.11003642105595 10) rotate(0 99.5 67.5)"><path d="M9.74 36.3 C9.74 36.3, 9.74 36.3, 9.74 36.3 M9.74 36.3 C9.74 36.3, 9.74 36.3, 9.74 36.3 M4.93 44.88 C15.4 34.42, 22.69 26.97, 30.46 18.07 M6.16 45.54 C14.19 37.23, 20.85 27.83, 29.26 19.31 M2.74 56.88 C9.89 47.88, 20 36.83, 37.44 16.23 M3.05 55.21 C15.47 42.33, 25.89 29.61, 38.18 17.63 M0.16 65.94 C19.21 43.99, 34.46 26.78, 43.33 15.01 M1.8 64.47 C10.81 53.16, 20.66 42.07, 45.56 13.14 M1.14 68.04 C19.34 51.06, 39.44 27.37, 53.35 12.3 M2.85 70.22 C15.16 56.07, 26.96 40.07, 53.5 11.68 M4.33 75.96 C20.72 57.94, 36.92 39.11, 62.23 8.27 M2.29 75.04 C20.77 54.48, 37.8 35.82, 59.71 9.51 M3.31 78.78 C18.96 60.66, 32.96 46.06, 67.9 4.52 M5.04 80.09 C24.95 55.47, 44.79 32.44, 67.15 5.02 M4.38 85.48 C29.52 54.27, 58.18 24.23, 73.91 2.78 M4.5 83.46 C26.37 58.6, 46.83 35.7, 75.36 3.1 M5.59 90.93 C28.85 64.45, 49.08 40.37, 79.14 4.1 M6.58 89.7 C26.49 66.81, 45.56 42.96, 80.08 2.84 M6.52 95.06 C24.61 73.78, 41.02 55.42, 86.2 5.29 M7.24 93.58 C32.82 65.61, 56.56 35.72, 84.49 3.6 M9.95 98.33 C41.19 61.48, 75.51 22.73, 89.81 3.59 M11.22 97.13 C27.09 77.82, 41.59 59.57, 91.57 4.25 M11.66 100.88 C38.26 70.44, 60.56 45.87, 97.25 1.63 M13.64 99.44 C39.55 65.8, 67.3 33.66, 97.44 3.8 M14.13 101.97 C40.24 73.53, 66.23 44.07, 104.02 4.37 M16.66 101.67 C47.54 65.14, 79.12 28.29, 102.93 2.81 M19.56 103.46 C51.45 64.12, 89.63 25.73, 108.32 1.75 M18.34 105.07 C43.24 76.7, 67.49 48.11, 108.9 1.76 M20.31 108.93 C48.95 73.43, 78.67 42.11, 113.33 -0.84 M22.11 107.8 C42.65 82.88, 65.66 57.42, 114.52 0.03 M25.98 109.42 C44.86 84.55, 69.08 60.34, 119.77 2.92 M23.62 111.19 C57.86 70.46, 91.09 32.55, 118.72 0.99 M28.39 115.11 C61.44 76.83, 90.34 38.81, 122.77 2.59 M26.7 112.98 C63.48 72.89, 99.5 30.11, 122.88 2.94 M30.09 116.48 C63.66 74.82, 101.95 34.84, 129.73 3.54 M29.79 117.2 C64.89 76.61, 100.68 36.64, 127.7 3.21 M33.96 118.75 C52.74 94.62, 74.37 72.7, 132.01 3.81 M34.38 118.09 C55.02 94.75, 74.79 71.29, 132.74 5.68 M39.11 120.4 C70.37 82.48, 106.54 43.52, 135.99 8.08 M36.87 119.22 C72.5 80.54, 104.87 42.79, 136.42 6.3 M41.08 120.46 C69.6 89.17, 99.56 54.49, 139.49 8.34 M41.67 120.46 C65.13 94.81, 89.32 67.89, 140.32 8.4 M46.39 122.1 C76.88 85.56, 108.68 47.52, 145.46 10.84 M45.65 124.07 C76.7 86.05, 107.17 51.03, 143.75 9.14 M48.85 124.44 C86.3 82.85, 123.86 37.88, 147.06 8.53 M49.33 124.16 C70.86 98.25, 93.82 73.2, 148.83 10.67 M53.34 124.58 C77.22 96.74, 103.24 71.31, 153.41 11.98 M52.6 125.29 C90.36 83.26, 127.2 41.41, 153.04 10.53 M56.14 125.47 C88.47 89.86, 120.46 55.2, 157.31 14.84 M57.97 127.95 C80.21 102.66, 100.74 77.57, 156.92 13.79 M60.75 129.9 C91.7 94.08, 122.53 58, 159.61 14.27 M62.25 129.11 C96.93 87.15, 135.45 44.19, 159.29 15.01 M65.54 129.17 C85.6 105.84, 106.16 81.33, 162.94 18.09 M65.12 130.52 C97.37 94.91, 129.58 57.45, 162.93 18.02 M71.49 132.5 C95.64 102.34, 117.88 75.82, 166.81 19.29 M70.8 130.7 C94.43 102.9, 120.2 73.31, 166.59 20.03 M73.99 132.76 C98.06 106.12, 121.46 80.53, 169.98 21.91 M74.75 132.27 C104.96 96.69, 136.42 62.19, 171.22 22.05 M79.17 134.64 C106.2 101.08, 133.83 73.77, 172.21 24.99 M79.88 132.7 C110.23 96.89, 142.83 60.85, 172.66 24.52 M84.29 135.07 C117.15 93.93, 153.86 55.77, 176.59 28.53 M83.86 132.33 C106.67 106.84, 130.9 80.17, 177.89 25.76 M90.82 131.69 C117.12 97.81, 150.14 61.79, 179.39 29.4 M90.14 133.44 C121.23 95.81, 153.32 57.9, 179.74 29.6 M94.2 133.75 C123.23 98.93, 151.06 65.48, 183.66 32.04 M94.56 134.76 C116.55 107.49, 138.64 82.15, 182.43 32.53 M99.54 135.6 C117.28 110.56, 140.54 87.39, 187.06 34.16 M98.97 135.48 C123.81 106.26, 149.19 78.71, 186.3 35.11 M103.31 135.56 C134.87 98.97, 170.52 60.23, 189.5 39.63 M103.88 135.83 C128.31 105.69, 154.72 76.46, 187.36 39.41 M109.17 137.94 C136.84 103.75, 164.13 72.96, 190.27 42.73 M108.13 137.57 C132.18 107.47, 159.91 76.51, 189.33 42.84 M112.86 135.59 C144.82 101.73, 173.96 69.11, 193.77 47.3 M114.7 136.25 C135.81 111.12, 156.66 86.7, 193.24 45.91 M120.19 135.3 C141.75 110.16, 160.98 86.01, 196.51 48.68 M120.65 135.1 C138.24 114, 156.58 91.7, 195.39 49.77 M127.2 132.53 C146.59 112.02, 166.23 89.02, 196.25 53.66 M126.13 133.44 C145.09 110.12, 165.23 89.29, 196.35 52.73 M132 133.46 C147.29 116.85, 158.15 103.01, 198.34 55.16 M134.15 131.27 C154.46 107.54, 177.49 81.21, 198.24 56.58 M138.47 132.16 C152.2 114.67, 164.65 101.91, 196.83 64.19 M139.18 130.04 C160.1 107.98, 179.16 84.81, 197.74 63.07 M146.63 128.99 C163.77 107.71, 182.54 85.39, 196.79 67.98 M147.47 127.67 C167.97 106.17, 187.03 82.42, 197.27 69.71 M157.76 122.84 C169.68 109.61, 179.89 96.31, 196.1 77.7 M157 122.35 C169.52 108.43, 181.2 94.71, 196.78 78.04 M164.81 118.05 C175.07 109.26, 186.26 98.89, 197.15 81.68 M165.84 118.08 C175.9 106.89, 186.13 97.04, 196.26 84.46" stroke="#868e96" stroke-width="0.5" fill="none"></path><path d="M114.52 -0.08 C127.65 0.1, 142.05 5.92, 153.23 10.99 C164.4 16.07, 174.04 22.92, 181.56 30.34 C189.07 37.76, 196.01 46.43, 198.32 55.53 C200.62 64.64, 198.73 75.88, 195.41 84.98 C192.08 94.08, 186.7 103.17, 178.38 110.12 C170.06 117.07, 157.69 122.56, 145.49 126.66 C133.3 130.77, 118.73 134.21, 105.21 134.74 C91.7 135.27, 77.07 132.89, 64.41 129.86 C51.74 126.82, 38.79 122.74, 29.2 116.52 C19.62 110.29, 11.6 101.28, 6.9 92.51 C2.19 83.74, 0.53 73.19, 0.96 63.87 C1.4 54.55, 3.81 44.7, 9.49 36.58 C15.18 28.46, 24.63 20.88, 35.08 15.16 C45.52 9.43, 58.64 4.49, 72.18 2.22 C85.73 -0.05, 108.68 1.44, 116.37 1.54 C124.06 1.64, 118.49 1.97, 118.32 2.83 M102.28 -0.83 C115.35 -1.4, 131.59 2.69, 143.63 6.82 C155.67 10.96, 166.01 17.12, 174.51 23.97 C183.02 30.82, 190.48 39.35, 194.65 47.92 C198.82 56.49, 201.21 66.15, 199.54 75.42 C197.87 84.68, 191.8 95.57, 184.65 103.51 C177.49 111.45, 167.65 117.87, 156.62 123.06 C145.6 128.24, 131.77 133, 118.49 134.6 C105.21 136.21, 90.22 134.91, 76.92 132.69 C63.61 130.47, 49.57 126.67, 38.67 121.29 C27.76 115.91, 17.83 108.64, 11.49 100.41 C5.15 92.17, 1.35 80.89, 0.6 71.9 C-0.15 62.9, 2.48 54.78, 6.99 46.45 C11.5 38.12, 18.67 28.8, 27.67 21.91 C36.67 15.03, 48.63 8.89, 60.98 5.13 C73.33 1.37, 95.05 0.17, 101.78 -0.65 C108.51 -1.47, 101.6 -1.19, 101.35 0.21" stroke="#000000" stroke-width="1" fill="none"></path></g><g stroke-linecap="round" transform="translate(226.88781419883355 509) rotate(0 82.5 45.5)"><path d="M2.94 9.18 C2.94 9.18, 2.94 9.18, 2.94 9.18 M2.94 9.18 C2.94 9.18, 2.94 9.18, 2.94 9.18 M0.71 17.84 C5.17 13.77, 8.42 10.6, 11.21 5.77 M0.71 17.84 C3.13 14.95, 4.74 12.86, 11.21 5.77 M0.45 24.24 C3.58 21.49, 9.39 15.26, 18.16 3.87 M0.45 24.24 C3.98 18.67, 9.63 15.23, 18.16 3.87 M0.85 29.89 C4.04 23.95, 8.62 19.14, 25.12 1.96 M0.85 29.89 C7.66 21.85, 13.44 15.54, 25.12 1.96 M0.58 36.28 C7.73 27.73, 18.17 16.3, 30.11 2.32 M0.58 36.28 C9.39 26.56, 18.12 15.1, 30.11 2.32 M0.98 41.93 C14.38 29.51, 27.55 15.65, 35.75 1.93 M0.98 41.93 C9.16 34.14, 14.98 25, 35.75 1.93 M0.72 48.32 C13.98 32.78, 31.66 16.62, 40.74 2.29 M0.72 48.32 C12.25 35.63, 24.62 20.37, 40.74 2.29 M0.46 54.72 C15.74 35, 32.33 19.43, 46.38 1.89 M0.46 54.72 C18.44 34.31, 34.86 14.71, 46.38 1.89 M0.85 60.36 C20.77 37.95, 36.31 18.7, 51.37 2.25 M0.85 60.36 C17.55 41.58, 35.73 22.12, 51.37 2.25 M0.59 66.76 C24.21 40.52, 44.44 17.15, 57.01 1.86 M0.59 66.76 C13.42 52.74, 24.55 40.87, 57.01 1.86 M0.98 72.41 C14.55 55.77, 29.24 38.18, 62 2.22 M0.98 72.41 C20.07 51.4, 37.68 30.47, 62 2.22 M3.35 75.78 C29.91 48.59, 51.94 18.98, 67.64 1.82 M3.35 75.78 C25.44 52.7, 45.21 27.93, 67.64 1.82 M4.4 80.67 C31.96 50.66, 54.26 21.66, 72.63 2.18 M4.4 80.67 C24.05 55.68, 45.71 31.91, 72.63 2.18 M6.1 84.81 C22.96 62.03, 42.99 39.01, 78.27 1.79 M6.1 84.81 C24.34 62.26, 43.78 40.46, 78.27 1.79 M9.12 87.43 C34.11 60.4, 58.23 33.87, 83.26 2.15 M9.12 87.43 C38.45 52.56, 67.47 18.65, 83.26 2.15 M12.14 90.06 C38.34 59.15, 64.34 29.76, 88.9 1.75 M12.14 90.06 C38.19 59.39, 62.54 30.81, 88.9 1.75 M16.47 91.17 C41.7 58.64, 69.09 31.45, 93.89 2.11 M16.47 91.17 C41.26 64.19, 63.93 38.81, 93.89 2.11 M20.8 92.28 C40.56 69.29, 63.63 45.36, 99.53 1.72 M20.8 92.28 C47.64 59.97, 77.66 26.93, 99.53 1.72 M25.13 93.4 C46.25 69.41, 71.87 39.49, 104.52 2.08 M25.13 93.4 C43.19 70.99, 64.34 49.11, 104.52 2.08 M30.78 93 C54.7 62.73, 79.64 36.34, 110.16 1.69 M30.78 93 C58.25 59.97, 86.55 28.46, 110.16 1.69 M35.76 93.37 C57.29 72.26, 77.33 47.77, 115.15 2.05 M35.76 93.37 C61.96 62.68, 88.63 31.47, 115.15 2.05 M41.41 92.97 C70.99 60.19, 98.37 25.96, 120.79 1.65 M41.41 92.97 C59.07 73.51, 74.49 53.97, 120.79 1.65 M46.39 93.33 C72.82 63.79, 99.14 32.79, 125.78 2.01 M46.39 93.33 C63.9 73.79, 82.04 51.34, 125.78 2.01 M52.04 92.94 C80.3 62.12, 107.36 26.84, 130.76 2.37 M52.04 92.94 C70.69 71.67, 88.12 50.54, 130.76 2.37 M57.02 93.3 C79.82 64.53, 104.82 38, 136.41 1.98 M57.02 93.3 C88.03 58.72, 119.47 23.02, 136.41 1.98 M62.67 92.9 C93.04 58.38, 120.05 26.14, 142.71 0.83 M62.67 92.9 C81.19 70.67, 100.52 49.34, 142.71 0.83 M67.65 93.26 C93.29 64.09, 115.07 34.26, 147.04 1.94 M67.65 93.26 C88.63 68.26, 107.91 45.07, 147.04 1.94 M73.3 92.87 C97.49 63.31, 122.6 37.85, 152.02 2.3 M73.3 92.87 C103.18 57.27, 133.41 23.52, 152.02 2.3 M78.28 93.23 C109.11 59.01, 136.41 23.92, 156.36 3.42 M78.28 93.23 C102.46 66.51, 125.85 37.79, 156.36 3.42 M83.27 93.59 C98.04 77.15, 113.15 57.25, 159.37 6.04 M83.27 93.59 C111.88 59.57, 140.83 27.7, 159.37 6.04 M88.91 93.19 C115.23 62.8, 140.68 35.72, 161.74 9.42 M88.91 93.19 C114.37 63.57, 141.66 31.7, 161.74 9.42 M93.9 93.55 C116.3 68.23, 141.18 38.18, 163.44 13.55 M93.9 93.55 C116.28 68.96, 136.22 45.52, 163.44 13.55 M99.54 93.16 C119.5 72.16, 135.08 50.47, 165.15 17.69 M99.54 93.16 C118.24 70.2, 137.92 47.8, 165.15 17.69 M104.53 93.52 C119.4 73.64, 136.85 56.41, 164.89 24.08 M104.53 93.52 C125.06 69.61, 146 47.01, 164.89 24.08 M110.17 93.12 C122.88 76.28, 138.89 63.07, 165.28 29.73 M110.17 93.12 C127.58 73.87, 144.66 52.43, 165.28 29.73 M115.16 93.48 C127.78 81.01, 139.71 66.22, 165.02 36.13 M115.16 93.48 C128.32 79.31, 139.47 64.47, 165.02 36.13 M120.81 93.09 C131.12 80.67, 140.13 69.87, 165.42 41.77 M120.81 93.09 C132.78 79.3, 144.69 64.68, 165.42 41.77 M125.79 93.45 C132.43 82.92, 141.53 76.96, 165.16 48.17 M125.79 93.45 C137.79 79.82, 148.67 64.76, 165.16 48.17 M131.44 93.05 C143.11 80.86, 150.05 70.11, 165.55 53.81 M131.44 93.05 C143.76 78.07, 157.41 63.01, 165.55 53.81 M136.42 93.41 C145.07 81.76, 154.98 69.66, 165.29 60.21 M136.42 93.41 C146.18 80.97, 157.79 69.17, 165.29 60.21 M143.38 91.51 C149.37 84.43, 157.12 75.48, 165.68 65.85 M143.38 91.51 C149.27 84.73, 157.48 75.66, 165.68 65.85 M149.68 90.36 C156.22 84.26, 162.1 74.18, 167.39 69.98 M149.68 90.36 C153.65 85.98, 156.57 81.65, 167.39 69.98" stroke="#be4bdb" stroke-width="0.5" fill="none"></path><path d="M22.75 0 M22.75 0 C51.62 1.25, 82.34 -1.1, 142.25 0 M22.75 0 C69.86 1.46, 118.22 0.04, 142.25 0 M142.25 0 C155.91 0.58, 164.13 9.3, 165 22.75 M142.25 0 C156.67 1.42, 166.38 9.41, 165 22.75 M165 22.75 C164.91 33.5, 164.06 47.78, 165 68.25 M165 22.75 C164.78 36.17, 165.13 48.58, 165 68.25 M165 68.25 C164.78 82.76, 156.09 90.53, 142.25 91 M165 68.25 C164.77 81.98, 158.68 91.36, 142.25 91 M142.25 91 C106.31 90.64, 71.53 90.62, 22.75 91 M142.25 91 C105.78 91.65, 71.24 92.06, 22.75 91 M22.75 91 C9.27 90.64, -0.41 83.68, 0 68.25 M22.75 91 C8.65 90.54, 2.15 84.02, 0 68.25 M0 68.25 C-1.62 57.18, 0.23 46.22, 0 22.75 M0 68.25 C-0.52 55.68, 0.85 43.23, 0 22.75 M0 22.75 C-1.47 6.91, 9.06 1.03, 22.75 0 M0 22.75 C-1.1 7.26, 9.81 -1.68, 22.75 0" stroke="#000000" stroke-width="1" fill="none"></path></g><g stroke-linecap="round" transform="translate(578.9989253099449 316.7777777777778) rotate(0 74 67.5)"><path d="M95.57 3.29 C105.66 5.01, 116.28 11.09, 124.23 17.63 C132.18 24.17, 139.47 33.4, 143.27 42.53 C147.07 51.66, 148.03 62.4, 147.03 72.4 C146.04 82.4, 142.54 93.99, 137.31 102.53 C132.07 111.08, 124.52 118.5, 115.62 123.66 C106.73 128.82, 94.57 132.28, 83.94 133.51 C73.32 134.74, 62.11 133.75, 51.89 131.05 C41.66 128.36, 30.32 124.04, 22.61 117.33 C14.89 110.62, 9.25 99.83, 5.6 90.78 C1.94 81.73, 0.05 72.6, 0.68 63.03 C1.31 53.46, 4.18 41.88, 9.36 33.35 C14.55 24.82, 22.81 17.44, 31.77 11.85 C40.72 6.26, 51.14 0.8, 63.09 -0.18 C75.04 -1.17, 95.63 4.25, 103.47 5.94 C111.31 7.63, 110.44 8.94, 110.11 9.93 M64.5 1.01 C74.25 -1.13, 86.13 0.15, 96.11 3.13 C106.09 6.12, 116.58 12.07, 124.38 18.91 C132.17 25.74, 139.04 35.29, 142.87 44.13 C146.7 52.98, 148.06 62.4, 147.36 71.97 C146.65 81.54, 144.14 92.83, 138.64 101.56 C133.14 110.29, 123.18 118.64, 114.36 124.34 C105.53 130.05, 95.89 134.78, 85.68 135.8 C75.46 136.82, 63.65 133.76, 53.05 130.46 C42.46 127.16, 29.96 122.36, 22.12 115.98 C14.27 109.61, 9.79 101.34, 5.99 92.19 C2.19 83.04, -1.55 71.11, -0.71 61.09 C0.13 51.07, 5.32 40.53, 11.02 32.08 C16.72 23.63, 24.6 15.39, 33.48 10.4 C42.36 5.41, 59.08 3.54, 64.29 2.13 C69.5 0.71, 64.7 0.9, 64.73 1.91" stroke="#000000" stroke-width="1" fill="none"></path></g><g stroke-linecap="round"><g transform="translate(316.191077747587 383.29894779333324) rotate(0 6.483869031940571 58.94702044493778)"><path d="M-0.09 0 C2.14 19.44, 12.04 97.79, 14.57 117.51 M-1.6 -1.05 C0.43 18.5, 11.21 99.39, 13.97 118.95" stroke="#000000" stroke-width="1" fill="none"></path></g><g transform="translate(316.191077747587 383.29894779333324) rotate(0 6.483869031940571 58.94702044493778)"><path d="M0 93.49 C5.4 104.85, 12.29 111.75, 15.06 118.99 M-0.35 93.28 C3.5 97.35, 6.01 104, 13.44 118.71" stroke="#000000" stroke-width="1" fill="none"></path></g><g transform="translate(316.191077747587 383.29894779333324) rotate(0 6.483869031940571 58.94702044493778)"><path d="M20.33 90.72 C17.71 103.17, 16.55 111.15, 15.06 118.99 M19.98 90.52 C19.6 95.02, 17.9 102.24, 13.44 118.71" stroke="#000000" stroke-width="1" fill="none"></path></g></g><mask></mask><g stroke-linecap="round"><g transform="translate(440.8310671037535 315.6664763443805) rotate(0 68.78252311133065 23.836707384370754)"><path d="M0.43 -0.23 C23.65 7.56, 115.2 39.53, 138.37 47.77 M-0.8 -1.39 C22.31 7.08, 113.91 40.94, 137.21 49.07" stroke="#000000" stroke-width="1" fill="none"></path></g><g transform="translate(440.8310671037535 315.6664763443805) rotate(0 68.78252311133065 23.836707384370754)"><path d="M106.83 48.5 C113.03 50.17, 122.04 50.29, 139.05 50.51 M107.25 50 C117.43 48.28, 130.31 49.93, 136.78 49.52" stroke="#000000" stroke-width="1" fill="none"></path></g><g transform="translate(440.8310671037535 315.6664763443805) rotate(0 68.78252311133065 23.836707384370754)"><path d="M113.79 29.2 C118.63 35.13, 126.1 39.5, 139.05 50.51 M114.22 30.7 C121.99 36.17, 132.27 45.01, 136.78 49.52" stroke="#000000" stroke-width="1" fill="none"></path></g></g><mask></mask><g stroke-linecap="round"><g transform="translate(412.6857602838121 207.5123448833104) rotate(0 52.08643187740449 -40.949338096755184)"><path d="M0.03 0.02 C17.45 -13.27, 85.81 -66.48, 103.34 -79.94 M-1.41 -1.02 C16.48 -14.67, 87.86 -68.81, 105.58 -81.91" stroke="#000000" stroke-width="1" fill="none"></path></g><g transform="translate(412.6857602838121 207.5123448833104) rotate(0 52.08643187740449 -40.949338096755184)"><path d="M89.22 -58.27 C93.03 -60.27, 95.07 -65.39, 107.34 -80.4 M88.46 -57.77 C94.18 -63.15, 97.39 -70.53, 106.27 -82.47" stroke="#000000" stroke-width="1" fill="none"></path></g><g transform="translate(412.6857602838121 207.5123448833104) rotate(0 52.08643187740449 -40.949338096755184)"><path d="M76.9 -74.68 C83.18 -73.35, 87.72 -75.15, 107.34 -80.4 M76.15 -74.18 C85.12 -75.27, 91.58 -78.32, 106.27 -82.47" stroke="#000000" stroke-width="1" fill="none"></path></g></g><mask></mask><g stroke-linecap="round"><g transform="translate(10.998925309944866 282.33333333333337) rotate(0 105.80964770506142 -1.3146670315973665)"><path d="M0.3 -0.81 C35.9 -1.06, 177.06 -1.7, 212.62 -2.27 M-1 1.38 C34.49 0.85, 175.77 -3.19, 211.47 -4.01" stroke="#000000" stroke-width="1" fill="none"></path></g><g transform="translate(10.998925309944866 282.33333333333337) rotate(0 105.80964770506142 -1.3146670315973665)"><path d="M182.2 6.34 C191.03 5.54, 193.99 1.92, 210.16 -4.89 M183.64 6.3 C191.35 3.4, 198.31 0.86, 211.79 -3.5" stroke="#000000" stroke-width="1" fill="none"></path></g><g transform="translate(10.998925309944866 282.33333333333337) rotate(0 105.80964770506142 -1.3146670315973665)"><path d="M181.67 -14.17 C190.48 -10.43, 193.57 -9.51, 210.16 -4.89 M183.11 -14.21 C191.16 -11.72, 198.26 -8.88, 211.79 -3.5" stroke="#000000" stroke-width="1" fill="none"></path></g></g><mask></mask><g transform="translate(62.998925309944866 253.33333333333337) rotate(0 22.199974060058594 12.5)"><text x="0" y="0" font-family="Virgil, Segoe UI Emoji" font-size="20px" fill="#000000" text-anchor="start" style="white-space: pre;" direction="ltr" dominant-baseline="text-before-edge">test</text></g></svg>