<svg width="1098" height="391" viewBox="0 0 1098 391" fill="none" xmlns="http://www.w3.org/2000/svg">
<path d="M796.05 366.562C640.752 366.562 568.146 284.132 497.874 204.427C443.729 142.959 382.379 73.3125 301.95 73.3125C233.84 73.3125 145.176 135.85 106.163 187.1C103.928 190.116 99.1431 192.626 92.8212 194.099C86.4994 195.572 79.1378 195.891 72.2965 194.988L19.5925 187.955C16.0621 187.485 12.7802 186.704 9.94251 185.658C7.10485 184.611 4.7695 183.321 3.07566 181.865C1.38182 180.408 0.364169 178.814 0.0833644 177.179C-0.19744 175.544 0.264351 173.9 1.44121 172.345C33.5406 129.664 140.956 24.4375 301.95 24.4375C457.248 24.4375 529.854 106.868 600.126 186.573C654.271 248.041 715.622 317.688 796.05 317.688C864.16 317.688 952.824 255.15 991.837 203.9C994.072 200.884 998.857 198.374 1005.18 196.901C1011.5 195.428 1018.86 195.109 1025.7 196.012L1078.41 203.045C1081.94 203.515 1085.22 204.296 1088.05 205.342C1090.89 206.388 1093.22 207.677 1094.92 209.132C1096.61 210.588 1097.63 212.181 1097.91 213.815C1098.19 215.45 1097.73 217.093 1096.56 218.647C1064.46 261.336 957.044 366.562 796.05 366.562Z" fill="#00cda7"/>
</svg>
